Simulation
nRows=40
nColumns=15
endheader
time  TH_x TH_y TH_z SC_y  SC_z  SC_x  AC_y  AC_z  AC_x  GH_y  GH_z  GH_yy  EL_x  PS_y
5.745  0.000000  0.000000  0.000000  -52.96318351199367  18.729190152687277  17.819297721178817  46.34472698371631  11.149265807840097  13.182284522456358  36.64647570085725  55.39956705165478  -46.01862235961479  18.58053084187994  120.000000
5.80245  0.000000  0.000000  0.000000  -51.65259310122603  18.07432149928172  15.318622483199263  45.75156704151005  10.824933465577661  12.06288397127434  37.93006883333386  54.528299949656144  -46.70017872804721  18.87346912991533  120.000000
5.8599  0.000000  0.000000  0.000000  -50.09712862648744  17.234823101112113  12.27861920677535  45.04889235028899  10.40942101236829  10.936585118484727  39.314769321552824  53.26357858110721  -47.18556409323916  19.266686539634485  120.000000
5.91735  0.000000  0.000000  0.000000  -48.344291441454224  16.168559956372185  8.82903764316061  44.23685082721174  9.955664457710803  9.888841494842088  40.667307744003246  51.57122893108935  -47.387607812365175  19.67095915527257  120.000000
5.9748  0.000000  0.000000  0.000000  -46.44426532221101  14.857300007012336  5.13005916681882  43.31736609180683  9.553482431525804  8.989230299289009  41.88270969900499  49.42248428009988  -47.27024636442302  19.977790873448242  120.000000
6.03225  0.000000  0.000000  0.000000  -44.449012473707036  13.315162879376441  1.357188203655706  42.31592284224839  9.310820250677331  8.28582842841801  42.89790305258581  46.8103134579867  -46.86126315730014  20.092685978024637  120.000000
6.089700000000001  0.000000  0.000000  0.000000  -42.414676598921154  11.587036391592655  -2.315916402169807  41.288339156289695  9.327687601377248  7.808280302316196  43.702570879157946  43.76448988084887  -46.247487010031655  19.962941161485865  120.000000
6.14715  0.000000  0.000000  0.000000  -40.40788268027674  9.742634805051944  -5.7370230571835155  40.31296655812456  9.670359718217275  7.571751511161979  44.34723060386998  40.364500127308254  -45.5594934317426  19.587060052530745  120.000000
6.2046  0.000000  0.000000  0.000000  -38.511313047328855  7.876615566986501  -8.797702100036817  39.47723877828101  10.354124947931309  7.572323007483387  44.95037240473745  36.74242470063948  -44.956527762695835  19.002974288317915  120.000000
6.26205  0.000000  0.000000  0.000000  -36.8212247120574  6.093770077535597  -11.442317616241409  38.84680126275936  11.337337142868922  7.78873566555608  45.6954488284281  33.06346352619927  -44.61190035941137  18.271699481696118  120.000000
6.3195  0.000000  0.000000  0.000000  -35.42759352425759  4.48983374557242  -13.660943262070472  38.448250954042024  12.532789917816654  8.190260765242272  46.8163596836971  29.496514154810765  -44.70160631624486  17.4679515052633  120.000000
6.37695  0.000000  0.000000  0.000000  -34.38665020386565  3.1425615829395057  -15.472788485795396  38.27759270487334  13.832406720717033  8.737877567367592  48.5685376355486  26.18580622448536  -45.391252563958716  16.67616516543998  120.000000
6.4344  0.000000  0.000000  0.000000  -33.71008699707921  2.09796409958921  -16.90785786003349  38.30316508862237  15.131947927688191  9.38792162188566  51.17085870586364  23.22829438705508  -46.80685312905033  15.982402776412906  120.000000
6.49185  0.000000  0.000000  0.000000  -33.36740702502466  1.3676010957643787  -17.998865498095597  38.47726527002359  16.34947377265479  10.095471089782004  54.74962984318911  20.671596459649233  -49.00966746474661  15.46026388733938  120.000000
6.549300000000001  0.000000  0.000000  0.000000  -33.29708351226478  0.9343192766565631  -18.779597493514306  38.75065220231466  17.431859701471467  10.816450307085336  59.30845895218019  18.52773376996894  -51.986985796426765  15.157607014093903  120.000000
6.60675  0.000000  0.000000  0.000000  -33.42634089180308  0.7575207775611977  -19.28536416007545  39.07698372119376  18.352275734283733  11.51073587475984  64.71619902429514  16.78716020447731  -55.64710902678483  15.088965633459324  120.000000
6.6642  0.000000  0.000000  0.000000  -33.68327605132129  0.7808192828082418  -19.55488837598818  39.4134564285009  19.10518845573325  12.142014825407681  70.71321212796845  15.4210733875465  -59.81341491763161  15.238288434567028  120.000000
6.72165  0.000000  0.000000  0.000000  -34.00369026803561  0.942262739758448  -19.63047124227023  39.72131774990567  19.699425064644544  12.679321186069096  76.95583271263436  14.376860436101195  -64.24304074096018  15.566334643543303  120.000000
6.7791  0.000000  0.000000  0.000000  -34.33886207494047  1.18379831365372  -19.55676686894868  39.97382375271909  20.150147495199526  13.100307594468841  83.09984736508615  13.587208553456636  -68.68205123884042  16.01505252190237  120.000000
6.83655  0.000000  0.000000  0.000000  -34.652016846547426  1.4548356701472216  -19.37617673320199  40.16259359102611  20.471430237986322  13.393276663734662  88.8790891197609  12.985690124522957  -72.92093489259375  16.508416120364142  120.000000
6.894  0.000000  0.000000  0.000000  -34.919826032532505  1.7158807648855356  -19.12301629519315  40.29513261694793  20.673159356909725  13.55722370438941  94.13690131541709  12.518640699737047  -76.82439952632856  16.959990235387384  120.000000
6.95145  0.000000  0.000000  0.000000  -35.12837127256262  1.9427062983860852  -18.82227096512424  40.39068188899129  20.765609933174186  13.598350357930492  98.81419006221986  12.14608062159702  -80.33266031164784  17.291164166856444  120.000000
7.008900000000001  0.000000  0.000000  0.000000  -35.27069115426723  2.1231618598738162  -18.48919257480076  40.468770880184955  20.76197268295759  13.53013686184534  102.92020836006571  11.836606093113614  -83.44799026311546  17.45612420455102  120.000000
7.06635  0.000000  0.000000  0.000000  -35.35400270217155  2.253287731559066  -18.130388399993457  40.539638787056035  20.677953537820752  13.372072331485064  106.49802355606957  11.566704599102396  -86.2124308996572  17.46351747317713  120.000000
7.1238  0.000000  0.000000  0.000000  -35.39706141342101  2.3360806420749256  -17.747355700940158  40.6057144347641  20.532191843972836  13.143537945882759  109.6002806402989  11.320305359140933  -88.68664607447744  17.37388019450226  120.000000
7.18125  0.000000  0.000000  0.000000  -35.42277912776645  2.380461631569066  -17.33950352522008  40.66951059439493  20.34579584187769  12.858525262416242  112.26535638612998  11.089216124437561  -90.92126999968502  17.272170585853534  120.000000
7.2387  0.000000  0.000000  0.000000  -35.449769391231534  2.4007356567421794  -16.9056965732112  40.73717107968212  20.13728189287374  12.528068582655077  114.51597126861522  10.87054509480725  -92.94386704334904  17.233240359126178  120.000000
7.29615  0.000000  0.000000  0.000000  -35.4894256514315  2.4085575005800464  -16.444553758061893  40.81374830609483  19.916670760648824  12.166443212609677  116.37437326485862  10.659985748034119  -94.76418164015632  17.293930429401705  120.000000
7.3536  0.000000  0.000000  0.000000  -35.54327954152913  2.409971579789313  -15.955942394003044  40.90260601808628  19.685623571453746  11.790849196908574  117.87665716466516  10.449106059627193  -96.38661126595882  17.44750193245975  120.000000
7.41105  0.000000  0.000000  0.000000  -35.603567392394126  2.4102792697694215  -15.44302278548346  41.00964681659341  19.44216796772052  11.415458645931148  119.06666598470045  10.228860487604951  -97.81187458721163  17.66051917561944  120.000000
7.468500000000001  0.000000  0.000000  0.000000  -35.65826302832294  2.4151736218931807  -14.912685621729567  41.142104442713666  19.184353603034  11.047784357695742  119.98812164990557  9.991611932527382  -99.04059315468218  17.895277840510445  120.000000
7.52595  0.000000  0.000000  0.000000  -35.69794540461144  2.428241378666819  -14.373725662647882  41.302488730685866  18.910179794166588  10.690892086931212  120.6878205595674  9.731821234654307  -100.08545514668614  18.125482493743533  120.000000
7.5834  0.000000  0.000000  0.000000  -35.72034818261397  2.449593421976305  -13.834468474220131  41.48594529243162  18.617340385035536  10.346377383899027  121.21526892774021  9.447729888458506  -100.97480105332464  18.34202434576244  120.000000
7.64085  0.000000  0.000000  0.000000  -35.72901998518349  2.4775563373046077  -13.301502369835461  41.68379658122165  18.304523502707223  10.014665696854518  121.61805793415886  9.142415151762744  -101.74610019299138  18.548398389616693  120.000000
7.6983  0.000000  0.000000  0.000000  -35.729677750880974  2.510137779229575  -12.779195153989628  41.88750919852312  17.97230821396101  9.695054885703183  121.94142622258856  8.823203907199614  -102.44089394229029  18.75239271755939  120.000000
7.75575  0.000000  0.000000  0.000000  -35.727783084198634  2.5444424160425583  -12.269602366194771  42.09091334405183  17.623410187162765  9.385809690872039  122.22664019079924  8.500015956325536  -103.09905881783683  18.959166285171115  120.000000
7.8132  0.000000  0.000000  0.000000  -35.72686579782523  2.577606125273053  -11.772619511418355  42.29081932433639  17.262160636639813  9.08420067408863  122.51007469830712  8.18354798096757  -103.75484722344902  19.168398234042453  120.000000
7.87065  0.000000  0.000000  0.000000  -35.72955056496007  2.606927823940575  -11.286281847327224  42.48602455780086  16.89382993433919  8.786335998431282  122.81719722864065  7.883762348678728  -104.42943826342996  19.375837765031083  120.000000
7.928100000000001  0.000000  0.000000  0.000000  -35.73859837848226  2.629858042823216  -10.806984733953056  42.67471476875907  16.523348089642965  8.48789900707103  123.16239612388284  7.607879424449013  -105.12991101485773  19.57760894610302  120.000000
7.98555  0.000000  0.000000  0.000000  -35.756707141033644  2.6443213974235387  -10.330301830486214  42.853216692065836  16.155071266783256  8.183664359313944  123.5485069448614  7.358340594683639  -105.84881875160752  19.77494978067018  120.000000
